<svg width="184" height="70" viewBox="0 0 184 70" fill="none" xmlns="http://www.w3.org/2000/svg">
<path d="M0.839489 54L9.29119 3.09091H18.5135L11.3544 46.2692H33.7763L32.4837 54H0.839489ZM56.8445 54.7457C53.0826 54.7457 49.9505 53.9171 47.4482 52.2599C44.9624 50.6027 43.214 48.2744 42.2031 45.2749C41.1922 42.2753 41.0099 38.7952 41.6562 34.8345C42.3026 30.9235 43.5952 27.5014 45.5341 24.5682C47.4896 21.6349 49.9505 19.3646 52.9169 17.7571C55.8999 16.133 59.2391 15.321 62.9347 15.321C66.6965 15.321 69.8203 16.1579 72.3061 17.8317C74.7919 19.4889 76.5402 21.8172 77.5511 24.8168C78.5786 27.8163 78.7692 31.313 78.1229 35.3068C77.4931 39.2012 76.1922 42.6068 74.2202 45.5234C72.2647 48.4401 69.8037 50.7105 66.8374 52.3345C63.871 53.942 60.54 54.7457 56.8445 54.7457ZM57.5902 47.5369C59.6783 47.5369 61.5095 46.9735 63.0838 45.8466C64.6747 44.7031 65.9756 43.1702 66.9865 41.2479C68.014 39.3089 68.7266 37.1546 69.1243 34.7848C69.4889 32.4979 69.4972 30.4264 69.1491 28.5703C68.8011 26.6977 68.0554 25.2145 66.9119 24.1207C65.785 23.0104 64.219 22.4553 62.2138 22.4553C60.1257 22.4553 58.2779 23.0353 56.6705 24.1953C55.0795 25.3388 53.7786 26.88 52.7678 28.8189C51.7569 30.7412 51.0608 32.8873 50.6797 35.2571C50.2985 37.544 50.282 39.6155 50.63 41.4716C50.978 43.3277 51.7237 44.8026 52.8672 45.8963C54.0107 46.9901 55.585 47.5369 57.5902 47.5369ZM96.8968 69.1136C93.6487 69.1136 90.9392 68.6745 88.7683 67.7962C86.5974 66.9344 84.9236 65.7744 83.747 64.3161C82.5704 62.8577 81.8412 61.242 81.5595 59.4688L90.0112 57.505C90.2598 58.2507 90.6575 58.9882 91.2044 59.7173C91.7678 60.4631 92.5964 61.0762 93.6902 61.5568C94.7839 62.054 96.2422 62.3026 98.0652 62.3026C100.617 62.3026 102.846 61.6811 104.752 60.4382C106.658 59.1953 107.834 57.1735 108.282 54.3729L109.425 47.1392H108.978C108.381 48.0672 107.561 49.0201 106.517 49.9979C105.489 50.9756 104.189 51.7959 102.614 52.4588C101.056 53.1217 99.1838 53.4531 96.9963 53.4531C94.063 53.4531 91.5192 52.7654 89.3649 51.3899C87.2105 49.9979 85.661 47.9264 84.7164 45.1754C83.7884 42.4079 83.6724 38.9444 84.3684 34.7848C85.0479 30.5921 86.3239 27.054 88.1966 24.1705C90.0858 21.2704 92.3478 19.0746 94.9828 17.5831C97.6177 16.075 100.402 15.321 103.335 15.321C105.572 15.321 107.354 15.7022 108.68 16.4645C110.005 17.2102 111.008 18.1134 111.687 19.174C112.367 20.218 112.864 21.2041 113.179 22.1321H113.651L114.695 15.8182H123.569L117.156 54.6214C116.626 57.8861 115.408 60.5874 113.502 62.7251C111.596 64.8795 109.202 66.4787 106.318 67.5227C103.451 68.5833 100.311 69.1136 96.8968 69.1136ZM100.576 46.3935C102.482 46.3935 104.189 45.9295 105.697 45.0014C107.205 44.0734 108.464 42.7393 109.475 40.9993C110.486 39.2592 111.19 37.1712 111.588 34.7351C111.986 32.3321 111.969 30.2275 111.538 28.4212C111.124 26.6148 110.32 25.2145 109.127 24.2202C107.934 23.2093 106.376 22.7038 104.454 22.7038C102.448 22.7038 100.692 23.2259 99.1838 24.2699C97.6923 25.3139 96.466 26.7474 95.5048 28.5703C94.5602 30.3767 93.8973 32.4316 93.5162 34.7351C93.1516 37.0717 93.1516 39.1184 93.5162 40.875C93.8973 42.6151 94.6679 43.974 95.8279 44.9517C97.0046 45.9129 98.5872 46.3935 100.576 46.3935ZM126.428 54L132.792 15.8182H141.79L135.427 54H126.428ZM138.608 10.3494C137.167 10.3494 135.974 9.86884 135.029 8.90767C134.084 7.94649 133.67 6.79474 133.786 5.45241C133.902 4.11008 134.507 2.95833 135.601 1.99716C136.711 1.03598 137.979 0.555398 139.404 0.555398C140.846 0.555398 142.031 1.03598 142.959 1.99716C143.903 2.95833 144.318 4.11008 144.202 5.45241C144.102 6.79474 143.497 7.94649 142.387 8.90767C141.293 9.86884 140.034 10.3494 138.608 10.3494ZM157.407 31.6278L153.728 54H144.705L151.069 15.8182H159.694L158.6 22.3061H159.073C160.266 20.1683 161.94 18.4697 164.094 17.2102C166.248 15.9508 168.759 15.321 171.626 15.321C174.228 15.321 176.415 15.8845 178.189 17.0114C179.962 18.1217 181.221 19.754 181.967 21.9084C182.713 24.0462 182.829 26.6397 182.315 29.6889L178.238 54H169.24L173.043 31.081C173.474 28.5455 173.151 26.5568 172.074 25.1151C171.013 23.6567 169.306 22.9276 166.953 22.9276C165.378 22.9276 163.928 23.2756 162.603 23.9716C161.277 24.651 160.158 25.6371 159.247 26.9297C158.352 28.2223 157.739 29.7884 157.407 31.6278Z" fill="black"/>
</svg>
